HIERARCHY
ROOT Hips
{
	OFFSET	0	0	0
	CHANNELS 6  Xposition Yposition Zposition Xrotation Yrotation Zrotation
	JOINT Spine
	{
		OFFSET	0	7.09727	1.42491
		CHANNELS 3  Xrotation Yrotation Zrotation
		JOINT Spine1
		{
			OFFSET	0	12.1515	-2.16991
			CHANNELS 3  Xrotation Yrotation Zrotation
			JOINT Spine2
			{
				OFFSET	0	9.21125	0.987307
				CHANNELS 3  Xrotation Yrotation Zrotation
				JOINT Spine3
				{
					OFFSET	0	11.0231	3.27656
					CHANNELS 3  Xrotation Yrotation Zrotation
					JOINT Spine4
					{
						OFFSET	0	16.3177	-1.67083
						CHANNELS 3  Xrotation Yrotation Zrotation
						JOINT Neck
						{
							OFFSET	0	7.78996	-5.45731
							CHANNELS 3  Xrotation Yrotation Zrotation
							JOINT Head
							{
								OFFSET	0	9.35229	-2.79918
								CHANNELS 3  Xrotation Yrotation Zrotation
								End Site
								{
									OFFSET	0	19.5075	-0.943909
								}
							}
						}
					}
					JOINT LeftShoulder
					{
						OFFSET	-4.687	19.8329	-9.3523
						CHANNELS 3  Xrotation Yrotation Zrotation
						JOINT LeftArm
						{
							OFFSET	-10.2164	-2.79918	3.59122
							CHANNELS 3  Xrotation Yrotation Zrotation
							JOINT LeftForeArm
							{
								OFFSET	-30.9138	-1.41096	2.20659
								CHANNELS 3  Xrotation Yrotation Zrotation
								JOINT LeftHand
								{
									OFFSET	-25.9068	-1.7903	1.8492
									CHANNELS 3  Xrotation Yrotation Zrotation
									End Site
									{
										OFFSET	-9.45469	-0.653372	0.674821
									}
								}
							}
						}
					}
					JOINT RightShoulder
					{
						OFFSET	4.687	19.8329	-9.3523
						CHANNELS 3  Xrotation Yrotation Zrotation
						JOINT RightArm
						{
							OFFSET	10.2164	-2.79918	3.59122
							CHANNELS 3  Xrotation Yrotation Zrotation
							JOINT RightForeArm
							{
								OFFSET	30.9138	-1.41096	2.20659
								CHANNELS 3  Xrotation Yrotation Zrotation
								JOINT RightHand
								{
									OFFSET	25.9068	-1.7903	1.8492
									CHANNELS 3  Xrotation Yrotation Zrotation
									End Site
									{
										OFFSET	9.45469	-0.653372	0.674821
									}
								}
							}
						}
					}
				}
			}
		}
	}
	JOINT LeftUpLeg
	{
		OFFSET	-9.67573	-3.54864	-0.712453
		CHANNELS 3  Xrotation Yrotation Zrotation
		JOINT LeftLeg
		{
			OFFSET	-2.14499	-42.0303	-0.657025
			CHANNELS 3  Xrotation Yrotation Zrotation
			JOINT LeftFoot
			{
				OFFSET	-2.09953	-38.701	3.32829
				CHANNELS 3  Xrotation Yrotation Zrotation
				JOINT LeftToeBase
				{
					OFFSET	0	-4.7778	-12.6898
					CHANNELS 3  Xrotation Yrotation Zrotation
					End Site
					{
						OFFSET	0	-1.91111	-7.64447
					}
				}
			}
		}
	}
	JOINT RightUpLeg
	{
		OFFSET	9.67573	-3.54864	-0.712453
		CHANNELS 3  Xrotation Yrotation Zrotation
		JOINT RightLeg
		{
			OFFSET	2.14499	-42.0303	-0.657025
			CHANNELS 3  Xrotation Yrotation Zrotation
			JOINT RightFoot
			{
				OFFSET	2.09953	-38.701	3.32829
				CHANNELS 3  Xrotation Yrotation Zrotation
				JOINT RightToeBase
				{
					OFFSET	0	-4.7778	-12.6898
					CHANNELS 3  Xrotation Yrotation Zrotation
					End Site
					{
						OFFSET	0	-1.91111	-7.64447
					}
				}
			}
		}
	}
}
MOTION
Frames: 14
Frame Time: 0.020409
 66.3872 44.4313 72.8501 74.2284 -176.334 -179 180 -179.987 179.862 14.375 -0.0253599 -0.229732 14.6513 -0.0760796 -0.229732 10.4128 -0.01268 -0.137839 2.85641 -0.00228965 -0.0458893 173.871 -171.76 167.916 178.34 -175.775 176.268 176.121 158.155 174.477 27.2263 -10.1073 27.5876 117.282 -68.301 117.135 -0 10.5345 -12.6239 171.908 -167.957 -166.155 63.1903 14.3196 -24.2676 80.6622 117.779 -77.9028 -0 -10.1123 20.9957 50.9509 11.7541 -5.91668 126.604 175.86 179.904 160.967 -179.858 -172.054 149.489 180 -180 39.0116 7.60063 -7.03904 88.3963 -170.532 179.992 156.669 -179.972 168.731 139.885 180 -180
 66.3075 44.565 73.2408 74.099 -176.697 -178.637 180 -179.981 179.779 14.3493 -0.0383001 -0.368214 14.5894 -0.1149 -0.368214 10.2881 -0.0191503 -0.220928 3.09882 -0.003981 -0.073535 174.293 -170.635 165.553 178.557 -176.162 175.639 176.237 158.528 174.604 26.3444 -9.21445 26.644 117.703 -68.7389 117.529 -0 9.73451 -12.4781 171.127 -169.378 -164.448 65.868 14.4837 -23.2486 89.1273 117.767 -87.3283 -0 -10.7055 20.7927 51.4488 10.7948 -5.38807 127.171 174.514 179.891 159.758 -179.875 -172.914 149.468 180 -180 38.0394 6.94555 -6.88839 89.254 -171.69 -179.939 156.777 -179.927 168.557 139.884 180 -180
 66.3447 44.8088 74.0541 74.2219 -176.801 -178.046 180 -179.982 179.586 14.3311 -0.0366334 -0.689204 14.5951 -0.1099 -0.689205 10.3489 -0.0183175 -0.413522 2.92298 -0.00702898 -0.137661 173.809 -170.593 165.392 178.411 -175.949 175.587 176.444 159.93 174.761 27.0159 -8.01758 25.6928 114.767 -70.2522 114.437 -0 8.46305 -12.5505 170.05 -170.415 -162.198 67.3508 15.1137 -23.0094 98.9371 118.319 -98.1894 -0 -11.0744 19.9108 51.5619 7.92058 -4.10814 125.72 172.886 179.722 161.615 -179.942 -174.168 149.459 180 -180 38.0216 6.67598 -7.76083 88.9099 -173.426 -179.81 157.022 -179.89 168.557 139.883 180 -180
 66.7255 44.6068 74.5913 74.6608 -176.883 -177.034 180 -179.983 179.363 14.2463 -0.0334053 -1.06141 14.6311 -0.100216 -1.06141 10.6558 -0.0167045 -0.636845 2.04678 -0.00758177 -0.212146 171.43 -171.187 164.957 177.685 -176.008 175.52 176.232 162.164 174.215 28.1268 -7.72983 24.7021 111.03 -71.8106 110.56 -0 7.12802 -12.6971 169.667 -171.551 -161.194 68.0016 16.2927 -23.3072 107.777 119.515 -108.031 -0 -11.361 19.0902 51.4125 3.40844 -2.90788 122.832 170.971 179.863 163.33 -179.986 -175.562 149.463 180 -180 38.3434 4.71089 -7.82641 88.6527 -175.578 -179.967 157.724 -179.826 168.572 139.887 180 -180
 66.7 44.703 74.8404 75.0249 -177.517 -176.082 180 -179.99 179.237 14.1785 -0.0202217 -1.27112 14.633 -0.060665 -1.27112 10.8186 -0.0101124 -0.762669 1.53866 -0.0068263 -0.254131 170.083 -171.288 164.783 177.267 -175.533 175.449 176.186 164.326 173.925 29.3631 -7.37866 24.0351 107.375 -73.133 106.75 -0 5.80225 -13.055 169.673 -172.612 -160.956 68.0813 17.3132 -23.6266 115.338 121.226 -116.775 -0 -11.4603 18.0771 51.1852 0.24196 -1.37181 121.158 169.995 -179.71 163.365 -179.984 -176.353 149.474 180 -180 38.4233 3.25991 -8.20758 89.7073 -177.869 -179.747 156.646 -179.849 168.582 139.885 180 -180
 66.6255 44.857 75.0555 75.3203 -178.365 -174.991 180 -179.999 179.044 14.1886 -0.0027841 -1.59396 14.6635 -0.00835229 -1.59396 10.8843 -0.00139239 -0.956374 1.40406 -0.00781143 -0.318696 169.763 -171.408 165.315 177.147 -175.142 175.558 176.09 167.393 173.467 31.769 -7.99206 23.1775 101.681 -74.3586 100.498 -0 4.84769 -13.4757 169.589 -173.028 -160.695 67.2483 18.2529 -23.9405 120.519 122.776 -122.947 -0 -11.4093 17.1328 50.6715 -2.20781 -0.304414 118.33 169.075 -179.755 161.411 -179.995 -177.028 149.488 180 -180 38.6271 2.1728 -8.30011 93.9434 179.17 -179.757 157.123 -179.895 168.568 139.885 180 -180
 66.536 45.101 74.8355 75.5558 -179.343 -174.013 180 -179.998 178.886 14.2099 -0.00366264 -1.85731 14.6726 -0.0109879 -1.85731 10.862 -0.00183194 -1.11439 1.49624 -0.00969952 -0.371335 170.117 -171.222 166.416 177.214 -174.116 175.748 176.184 169.862 173.4 34.38 -8.3063 22.7591 93.1387 -75.3378 91.6066 -0 4.21204 -13.9689 169.48 -172.738 -160.545 65.2027 19.1778 -23.8142 123.211 123.725 -126.103 -0 -10.8438 16.2786 50.5181 -2.29066 -0.171162 115.508 168.889 -179.639 156.661 -179.986 -177.228 149.496 180 -180 38.2613 1.24763 -8.26437 99.3407 176.052 -179.961 157.264 -179.879 168.57 139.886 180 -180
 66.9849 44.7547 74.534 75.9673 -179.928 -172.899 3.35147e-05 0.0016012 -1.19908 14.2219 0.00320115 -1.99847 14.6752 0.00960346 -1.99847 10.8405 0.0016012 -1.19908 1.56898 -0.0109439 -0.399544 170.54 -171.389 168.854 177.264 -172.695 176.259 175.761 172.552 172.405 38.3949 -10.0131 22.102 83.0794 -75.7355 81.2439 -0 3.96868 -14.2499 169.482 -171.137 -160.933 61.7094 20.0839 -24.565 121.642 123.009 -124.03 -0 -9.60174 16.0264 50.034 -2.2554 -0.654186 113.121 168.503 179.93 156.769 -179.988 -177.531 149.507 180 -180 37.0453 1.31982 -10.0166 103.773 173.215 -179.94 157.347 -179.89 168.56 139.884 180 -180
 67.522 44.5755 74.4499 76.0752 179.641 -171.844 0.000133608 0.00625721 -1.22323 14.2892 0.0125093 -2.03871 14.7534 0.0375281 -2.03871 10.9158 0.00625721 -1.22323 1.51994 -0.0108155 -0.407599 170.613 -172.217 172.68 177.19 -171.246 177.141 175.392 173.845 171.607 42.6559 -11.1248 21.4168 75.0449 -75.6363 72.9972 -0 4.07201 -14.8244 170.369 -169.241 -163.074 59.5662 20.0384 -25.717 117.187 121.512 -118.765 -0 -8.37632 16.3903 48.8547 -2.08495 -1.96121 111.726 168.117 -179.893 156.501 -179.978 -177.69 149.504 180 -180 35.9755 1.54145 -11.8165 109.588 171.426 -179.93 157.046 -179.861 168.658 139.912 180 -180
 68.0025 44.2968 73.9581 76.4302 179.217 -170.522 0.000218291 0.00981025 -1.2747 14.2476 0.0196119 -2.1245 14.739 0.0588356 -2.1245 10.968 0.00981025 -1.2747 1.31923 -0.0097826 -0.424787 170.264 -173.711 177.509 177.018 -170.228 178.329 174.709 175.62 170.149 47.1892 -13.0939 21.501 65.9212 -74.9392 63.5383 -0 4.66032 -15.5761 171.637 -167.219 -165.824 57.0921 19.2315 -27.45 111.337 120.036 -112.144 -0 -7.21752 16.8418 47.0703 -1.60566 -4.11991 112.441 168.036 -179.824 156.698 -179.979 -177.53 149.509 180 -180 35.9612 0.70331 -12.6402 113.061 170.832 179.949 157.502 -179.863 168.969 139.936 180 -180
 68.5535 44.1273 73.4076 77.0578 179.104 -169.707 9.6191e-05 0.00413996 -1.33102 14.1415 0.00827594 -2.21836 14.6538 0.0248278 -2.21836 10.9625 0.00413996 -1.33102 1.13201 -0.00876536 -0.443585 169.853 -174.99 -178.156 176.876 -169.327 179.393 174.043 175.521 168.897 50.5853 -14.194 22.2475 59.4807 -73.9639 56.6914 -0 5.6499 -16.5769 172.102 -165.812 -166.926 54.0674 19.3141 -29.1485 105.676 119.043 -105.55 -0 -6.17273 16.8956 45.7609 -1.14265 -5.64774 113.107 168.819 -179.885 156.948 -179.953 -176.952 149.502 180 -180 35.1525 -0.173569 -13.3462 115.464 172.011 -179.891 157.548 -179.927 169.723 139.962 180 -180
 69.0439 43.855 73.2023 77.4866 178.558 -169.103 5.47085e-05 0.00236826 -1.32334 14.0547 0.00473427 -2.20557 14.5601 0.0142028 -2.20557 10.8847 0.00236826 -1.32334 1.14986 -0.0088522 -0.441025 169.862 -176.835 -173.81 176.919 -169.517 -179.408 173.358 174.287 167.756 52.6702 -15.3235 23.644 59.7002 -73.6438 56.8147 -0 6.71302 -17.378 172.068 -163.933 -167.26 50.5384 19.9109 -30.4746 98.5475 118.254 -97.5017 -0 -5.22443 16.9626 45.0483 -0.782605 -6.81202 113.424 170.415 -179.894 157.088 -179.983 -176.03 149.469 180 -180 34.1113 -0.672207 -14.1002 115.852 173.993 -179.925 157.36 179.959 170.471 139.996 180 -180
 72.0643 42.5383 72.4641 75.9213 166.723 -164.856 179.989 -179.09 179.282 14.1105 -1.8201 -1.19646 14.5308 -5.4603 -1.20131 10.9108 -0.910177 -0.717606 1.23993 -0.00517549 -0.239116 169.93 -177.063 -171.369 176.956 -168.092 -178.889 172.801 175.519 166.514 54.1327 -17.4968 25.8497 62.1119 -73.792 58.9317 -0 7.42752 -17.7628 172.145 -158.065 -168.684 47.4291 19.82 -31.4087 86.6982 118.108 -84.932 -0 -3.9516 17.1207 51.0365 12.3542 -25.1027 113.352 154.49 -171.639 130.318 167.217 -71.7234 152.769 180 -180 30.1658 -6.24861 -14.1173 119.314 178.463 174.815 158.118 -179.198 171.084 140.037 180 -180
 71.7834 42.6494 72.3586 75.3622 163.365 -164.898 179.991 -178.921 179.507 14.224 -2.15769 -0.821966 14.7217 -6.47306 -0.826654 11.1739 -1.07891 -0.492917 0.831905 -0.00238513 -0.164259 168.454 -178.629 -168.37 176.583 -169.218 -178.023 172.824 175.007 166.634 53.8361 -17.174 28.2028 70.5547 -74.2184 67.8926 -0 8.23537 -18.1781 172.184 -157.505 -168.871 45.061 19.4246 -31.6256 81.0659 118.731 -78.3807 -0 -3.06769 17.4675 50.2959 14.207 -25.3354 115.074 161.306 -167.592 138.924 157.523 -77.5166 152.44 180 -180 30.477 -5.69031 -12.8317 117.686 -179.479 173.348 157.505 -179.89 171.479 140.063 180 -180
